<mxfile host="app.diagrams.net" modified="2022-10-12T13:37:58.439Z" agent="5.0 (Macintosh; Intel Mac OS X 10_15_7) AppleWebKit/537.36 (KHTML, like Gecko) Chrome/105.0.0.0 Safari/537.36" etag="oqcIM4pE3QVsLPHTBTTu" version="20.4.0" type="github">
  <diagram id="33jiP-AhaGj4KhNyqmxx" name="Page-1">
    <mxGraphModel dx="1186" dy="654" grid="1" gridSize="10" guides="1" tooltips="1" connect="1" arrows="1" fold="1" page="1" pageScale="1" pageWidth="850" pageHeight="1100" math="0" shadow="0">
      <root>
        <mxCell id="0" />
        <mxCell id="1" parent="0" />
        <mxCell id="xG58IogUK7cYei9HtkI7-1" value="It was 3:45 in the morning when the vote was finally taken.&lt;br&gt;&lt;br&gt;主语" style="rounded=1;whiteSpace=wrap;html=1;" vertex="1" parent="1">
          <mxGeometry x="150" y="100" width="260" height="70" as="geometry" />
        </mxCell>
        <mxCell id="xG58IogUK7cYei9HtkI7-2" value="" style="rounded=1;whiteSpace=wrap;html=1;" vertex="1" parent="1">
          <mxGeometry x="230" y="250" width="120" height="60" as="geometry" />
        </mxCell>
        <mxCell id="xG58IogUK7cYei9HtkI7-4" value="" style="endArrow=classic;html=1;rounded=0;" edge="1" parent="1">
          <mxGeometry width="50" height="50" relative="1" as="geometry">
            <mxPoint x="279.5" y="250" as="sourcePoint" />
            <mxPoint x="279.5" y="190" as="targetPoint" />
          </mxGeometry>
        </mxCell>
      </root>
    </mxGraphModel>
  </diagram>
</mxfile>
